<?xml version="1.0" encoding="utf-8"?>
<!-- Generator: Adobe Illustrator 24.0.2, SVG Export Plug-In . SVG Version: 6.00 Build 0)  -->
<svg version="1.1" id="Layer_1" xmlns="http://www.w3.org/2000/svg" xmlns:xlink="http://www.w3.org/1999/xlink" x="0px" y="0px"
	 viewBox="0 0 100 100" style="enable-background:new 0 0 100 100;" xml:space="preserve">
<style type="text/css">
	.st0{fill:#EF508A;}
	.st1{fill-rule:evenodd;clip-rule:evenodd;fill:#E31F64;}
</style>
<g>
	<g>
		<g>
			<circle class="st0" cx="50" cy="50" r="47.6"/>
			<path class="st1" d="M50,0.4C22.6,0.4,0.4,22.6,0.4,50S22.6,99.6,50,99.6c27.3,0,49.6-22.2,49.6-49.6S77.3,0.4,50,0.4z
				 M82.8,23.3c5.9,7.2,9.5,16.4,9.6,26.4c-1.4-0.3-15.4-3.1-29.5-1.3c-0.3-0.7-0.6-1.5-0.9-2.2c-0.9-2-1.8-4.1-2.8-6.1
				C74.7,33.6,81.8,24.5,82.8,23.3z M50,7.7c10.8,0,20.6,4,28.1,10.6c-0.8,1.1-7.2,9.6-22.2,15.3C48.9,20.9,41.2,10.5,40,8.9
				C43.2,8.1,46.6,7.7,50,7.7z M32,11.7c1.1,1.5,8.7,12,15.7,24.5c-19.8,5.3-37.3,5.2-39.2,5.2C11.3,28.2,20.1,17.3,32,11.7z
				 M7.6,50.1c0-0.4,0-0.9,0-1.3c1.8,0.1,22.4,0.3,43.5-6c1.2,2.4,2.4,4.8,3.4,7.2c-0.5,0.2-1.1,0.3-1.7,0.5
				c-21.8,7-33.5,26.3-34.4,27.9C11.8,70.9,7.6,60.9,7.6,50.1z M50,92.4c-9.8,0-18.8-3.3-26-8.9c0.8-1.6,9.4-18.1,33.2-26.5
				c0.1-0.1,0.2-0.1,0.3-0.1c6,15.4,8.4,28.4,9,32.1C61.5,91.2,55.9,92.4,50,92.4z M73.6,85.1c-0.4-2.6-2.7-15-8.2-30.2
				c13.3-2.1,24.9,1.3,26.4,1.8C89.9,68.6,83.1,78.7,73.6,85.1z"/>
		</g>
	</g>
</g>
</svg>
