<?xml version="1.0" encoding="utf-8"?>
<!-- Generator: Adobe Illustrator 24.0.2, SVG Export Plug-In . SVG Version: 6.00 Build 0)  -->
<svg version="1.1" id="Layer_1" xmlns="http://www.w3.org/2000/svg" xmlns:xlink="http://www.w3.org/1999/xlink" x="0px" y="0px"
	 viewBox="0 0 100 100" style="enable-background:new 0 0 100 100;" xml:space="preserve">
<style type="text/css">
	.st0{fill:#4373B9;}
	.st1{fill:#FFFFFF;}
</style>
<g>
	<path class="st0" d="M99.6,50C99.6,22.6,77.4,0.4,50,0.4S0.4,22.6,0.4,50c0,24.8,18.2,45.3,41.9,49V64.3H29.6V50h12.6V39.1
		c0-12.4,7.4-19.3,18.8-19.3c5.4,0,11.1,1,11.1,1v12.2h-6.3c-6.2,0-8.1,3.8-8.1,7.8V50h13.8l-2.2,14.3H57.8V99
		C81.5,95.3,99.6,74.8,99.6,50z"/>
	<path class="st1" d="M69.3,64.3L71.5,50H57.8v-9.3c0-3.9,1.9-7.8,8.1-7.8h6.3V20.7c0,0-5.7-1-11.1-1c-11.3,0-18.8,6.9-18.8,19.3V50
		H29.6v14.3h12.6V99c2.5,0.4,5.1,0.6,7.8,0.6s5.2-0.2,7.8-0.6V64.3H69.3z"/>
</g>
</svg>
