<?xml version="1.0" encoding="utf-8"?>
<!-- Generator: Adobe Illustrator 24.0.2, SVG Export Plug-In . SVG Version: 6.00 Build 0)  -->
<svg version="1.1" id="Layer_1" xmlns="http://www.w3.org/2000/svg" xmlns:xlink="http://www.w3.org/1999/xlink" x="0px" y="0px"
	 viewBox="0 0 100 100" style="enable-background:new 0 0 100 100;" xml:space="preserve">
<style type="text/css">
	.st0{fill:#2968B2;}
	.st1{fill:#FFFFFF;}
</style>
<g>
	<circle class="st0" cx="50" cy="50" r="49.7"/>
	<g>
		<g>
			<path class="st1" d="M53.8,43.2c0.8-0.9,1.5-1.8,2.3-2.6c2.6-2.4,5.6-3.7,9.2-3.6c2,0,3.9,0.2,5.8,0.7c4.3,1.2,6.8,4.2,8,8.4
				c0.9,3.2,1.1,6.4,1.1,9.7c0,6.9,0,13.7,0,20.6c0,0.6-0.2,0.8-0.8,0.8c-3.5,0-7.1,0-10.6,0c-0.6,0-0.8-0.2-0.8-0.8
				c0-6.5,0-13.1,0-19.6c0-1.6-0.1-3.3-0.6-4.9c-0.8-2.9-2.9-4.4-6-4.3c-4.2,0.2-6.4,2.3-6.9,6.6c-0.1,1-0.2,2-0.2,3.1
				c0,6.3,0,12.7,0,19c0,0.6-0.2,0.8-0.8,0.8c-3.6,0-7.1,0-10.7,0c-0.6,0-0.7-0.1-0.7-0.7c0-12.6,0-25.1,0-37.7
				c0-0.6,0.2-0.8,0.8-0.8c3.4,0,6.8,0,10.1,0c0.6,0,0.8,0.2,0.8,0.8C53.8,40.2,53.8,41.7,53.8,43.2z"/>
			<path class="st1" d="M34.5,57.6c0,6.2,0,12.4,0,18.7c0,0.7-0.2,0.9-0.9,0.9c-3.5,0-7.1,0-10.6,0c-0.6,0-0.7-0.1-0.7-0.7
				c0-12.6,0-25.2,0-37.8c0-0.5,0.1-0.7,0.7-0.7c3.6,0,7.2,0,10.8,0c0.7,0,0.8,0.3,0.8,0.9C34.5,45.1,34.5,51.3,34.5,57.6z"/>
			<path class="st1" d="M35.5,25.5c0,3.9-3.2,7.1-7.1,7.1c-3.8,0-7-3.2-7.1-7c0-3.9,3.2-7.1,7.1-7.1C32.3,18.4,35.5,21.6,35.5,25.5z
				"/>
		</g>
	</g>
</g>
</svg>
