<?xml version="1.0" encoding="utf-8"?>
<!-- Generator: Adobe Illustrator 24.0.2, SVG Export Plug-In . SVG Version: 6.00 Build 0)  -->
<svg version="1.1" id="Layer_1" xmlns="http://www.w3.org/2000/svg" xmlns:xlink="http://www.w3.org/1999/xlink" x="0px" y="0px"
	 viewBox="0 0 100 100" style="enable-background:new 0 0 100 100;" xml:space="preserve">
<style type="text/css">
	.st0{fill:#E41E27;}
</style>
<g>
	<g>
		<path class="st0" d="M50,0.3C22.6,0.3,0.4,22.6,0.4,50c0,21,13.1,39,31.5,46.2c-0.4-3.9-0.8-10,0.2-14.3
			c0.9-3.9,5.8-24.7,5.8-24.7s-1.5-3-1.5-7.4c0-6.9,4-12,9-12c4.2,0,6.3,3.2,6.3,7c0,4.2-2.7,10.6-4.1,16.5c-1.2,4.9,2.5,9,7.4,9
			c8.8,0,15.6-9.3,15.6-22.7c0-11.9-8.5-20.2-20.7-20.2c-14.1,0-22.4,10.6-22.4,21.5c0,4.2,1.6,8.8,3.7,11.3
			c0.4,0.5,0.4,0.9,0.3,1.4c-0.4,1.6-1.2,4.9-1.4,5.6c-0.2,0.9-0.7,1.1-1.7,0.7c-6.2-2.9-10.1-11.9-10.1-19.2
			c0-15.6,11.4-30,32.8-30c17.2,0,30.6,12.3,30.6,28.7c0,17.1-10.8,30.9-25.7,30.9c-5,0-9.8-2.6-11.4-5.7c0,0-2.5,9.5-3.1,11.8
			c-1.1,4.3-4.1,9.7-6.2,13c4.7,1.4,9.6,2.2,14.7,2.2c27.4,0,49.6-22.2,49.6-49.6C99.7,22.6,77.4,0.3,50,0.3z"/>
	</g>
</g>
</svg>
