<?xml version="1.0" encoding="utf-8"?>
<!-- Generator: Adobe Illustrator 24.0.2, SVG Export Plug-In . SVG Version: 6.00 Build 0)  -->
<svg version="1.1" id="Layer_1" xmlns="http://www.w3.org/2000/svg" xmlns:xlink="http://www.w3.org/1999/xlink" x="0px" y="0px"
	 viewBox="0 0 100 100" style="enable-background:new 0 0 100 100;" xml:space="preserve">
<style type="text/css">
	.st0{fill:#ED2024;}
	.st1{fill:#FFFFFF;}
</style>
<g>
	<circle class="st0" cx="50" cy="50" r="49.5"/>
	<path class="st1" d="M81.6,34.1c-0.8-2.8-3-5.1-5.8-5.8C70.7,26.9,50,26.9,50,26.9s-20.7,0-25.8,1.4c-2.8,0.8-5.1,3-5.8,5.8
		C17,39.3,17,50,17,50s0,10.7,1.4,15.9c0.8,2.8,3,5.1,5.8,5.8c5.2,1.4,25.8,1.4,25.8,1.4s20.7,0,25.8-1.4c2.8-0.8,5.1-3,5.8-5.8
		C83,60.7,83,50,83,50S83,39.3,81.6,34.1z M43.4,59.9V40.1L60.6,50L43.4,59.9z"/>
</g>
</svg>
